<svg xmlns="http://www.w3.org/2000/svg" width="358" height="358" viewBox="0 0 358 358" fill="none"><g clip-path="url(#clip0_351_168)"><path fill-rule="evenodd" clip-rule="evenodd" d="M-46 179V404H179H404V179V-46H179H-46V179ZM176.78 89.349C178.297 90.866 178.559 94.311 179 118.589L179.5 146.109L186.418 142.436C204.296 132.944 224.971 132.38 243.242 140.887C255.62 146.649 266.931 158.182 273.005 171.23C281.592 189.68 282.181 214.227 274.456 231.695C262.575 258.56 233.332 273.711 200.442 270.044C180.235 267.791 162.163 259.389 138.044 241.036C125.061 231.156 107.925 219.845 101.077 216.634C95.357 213.952 93.392 213.548 86 213.537C79.157 213.527 76.72 213.947 73.5 215.694C68.153 218.596 64.496 222.186 60.456 228.502C56.563 234.587 56.469 234.616 41.753 234.186C31.242 233.878 30.992 233.817 30.38 231.377C29.935 229.607 30.855 226.651 33.547 221.191C46.392 195.145 77.94 182.251 106.924 191.204C115.389 193.818 121.264 197.247 134 207.004C168.213 233.217 183.244 241.551 202.434 244.949C210.569 246.39 215.169 246.27 222.26 244.433C231.03 242.16 235.952 239.578 242.298 233.923C250.585 226.536 254.134 218.766 254.769 206.62C255.342 195.674 254.047 188.958 249.805 180.873C239.827 161.857 216.68 154.495 198.615 164.591C190.2 169.295 181.499 180.843 179.471 190C179.045 191.925 178.772 196.715 178.864 200.643C179.07 209.428 177.888 213 174.775 213C172.509 213 159.08 204.965 155.75 201.616C154.126 199.983 154 195.879 154 144.396V88.936L156.25 88.076C157.488 87.604 162.226 87.31 166.78 87.424C173.075 87.581 175.471 88.042 176.78 89.349Z" fill="#0BA3AE"></path><path fill-rule="evenodd" clip-rule="evenodd" d="M156.25 88.076L154 88.936V144.396C154 195.879 154.126 199.983 155.75 201.616C159.08 204.965 172.509 213 174.775 213C177.888 213 179.07 209.428 178.864 200.643C178.662 192.027 179.465 188.05 182.707 181.617C196.94 153.378 235.156 152.954 249.805 180.873C254.047 188.958 255.342 195.674 254.769 206.62C254.134 218.766 250.585 226.536 242.298 233.923C235.952 239.578 231.03 242.16 222.26 244.433C215.169 246.27 210.569 246.39 202.434 244.949C183.244 241.551 168.213 233.217 134 207.004C128.225 202.58 121.223 197.663 118.441 196.079C107.457 189.824 92.3938 187.009 80.1098 188.915C64.5028 191.336 53.1748 196.974 43.3828 207.193C36.2418 214.646 29.3818 227.403 30.3798 231.377C30.9918 233.817 31.2418 233.878 41.7528 234.186C56.4688 234.616 56.5628 234.587 60.4558 228.502C64.4958 222.186 68.1528 218.596 73.4998 215.694C76.7198 213.947 79.1568 213.527 85.9998 213.537C93.3918 213.548 95.3568 213.952 101.077 216.634C107.925 219.845 125.061 231.156 138.044 241.036C162.163 259.389 180.235 267.791 200.442 270.044C217.021 271.893 235.538 268.436 247.5 261.258C270.163 247.66 281.218 226.471 279.7 199.541C278.772 183.062 274.367 170.523 265.424 158.902C253.421 143.302 236.17 135.049 215.497 135.015C204.8 134.997 196.382 137.146 186.418 142.436L179.5 146.109L179 118.589C178.404 85.811 179.158 87.733 166.78 87.424C162.226 87.31 157.488 87.604 156.25 88.076Z" fill="white"></path></g><defs><clipPath id="clip0_351_168"><rect width="358" height="358" rx="179" fill="white"></rect></clipPath></defs></svg>